<?xml version="1.0" standalone="no"?>
<svg xmlns:xlink="http://www.w3.org/1999/xlink" id="wave" style="transform:rotate(0deg); transition: 0.3s" viewBox="0 0 1440 160" version="1.1" xmlns="http://www.w3.org/2000/svg"><defs><linearGradient id="sw-gradient-0" x1="0" x2="0" y1="1" y2="0"><stop stop-color="rgba(105.905, 209.546, 255, 1)" offset="0%"/><stop stop-color="rgba(234.829, 63.057, 63.057, 1)" offset="100%"/></linearGradient></defs><path style="transform:translate(0, 0px); opacity:1" fill="url(#sw-gradient-0)" d="M0,144L1440,32L2880,80L4320,16L5760,64L7200,96L8640,0L10080,128L11520,16L12960,48L14400,32L15840,112L17280,32L18720,144L20160,32L21600,144L23040,112L24480,48L25920,112L27360,96L28800,64L30240,64L31680,16L33120,48L34560,80L34560,160L33120,160L31680,160L30240,160L28800,160L27360,160L25920,160L24480,160L23040,160L21600,160L20160,160L18720,160L17280,160L15840,160L14400,160L12960,160L11520,160L10080,160L8640,160L7200,160L5760,160L4320,160L2880,160L1440,160L0,160Z"/><defs><linearGradient id="sw-gradient-1" x1="0" x2="0" y1="1" y2="0"><stop stop-color="rgba(243, 106, 62, 1)" offset="0%"/><stop stop-color="rgba(255, 179, 11, 1)" offset="100%"/></linearGradient></defs><path style="transform:translate(0, 50px); opacity:0.9" fill="url(#sw-gradient-1)" d="M0,48L1440,96L2880,64L4320,144L5760,144L7200,48L8640,128L10080,32L11520,112L12960,64L14400,80L15840,144L17280,144L18720,112L20160,80L21600,0L23040,96L24480,112L25920,48L27360,128L28800,48L30240,128L31680,128L33120,32L34560,48L34560,160L33120,160L31680,160L30240,160L28800,160L27360,160L25920,160L24480,160L23040,160L21600,160L20160,160L18720,160L17280,160L15840,160L14400,160L12960,160L11520,160L10080,160L8640,160L7200,160L5760,160L4320,160L2880,160L1440,160L0,160Z"/><defs><linearGradient id="sw-gradient-2" x1="0" x2="0" y1="1" y2="0"><stop stop-color="rgba(243, 106, 62, 1)" offset="0%"/><stop stop-color="rgba(255, 179, 11, 1)" offset="100%"/></linearGradient></defs><path style="transform:translate(0, 100px); opacity:0.8" fill="url(#sw-gradient-2)" d="M0,48L1440,48L2880,128L4320,32L5760,112L7200,144L8640,48L10080,16L11520,64L12960,32L14400,0L15840,96L17280,0L18720,80L20160,80L21600,96L23040,0L24480,16L25920,0L27360,32L28800,0L30240,96L31680,80L33120,96L34560,112L34560,160L33120,160L31680,160L30240,160L28800,160L27360,160L25920,160L24480,160L23040,160L21600,160L20160,160L18720,160L17280,160L15840,160L14400,160L12960,160L11520,160L10080,160L8640,160L7200,160L5760,160L4320,160L2880,160L1440,160L0,160Z"/></svg>